{"title":"Alvin and The Chipmunks The Road Chip (2015) 720p BD H264 AC3 [I","uid":13959999,"size":756741049,"categoryP":"video","categoryS":"hd___movies","magnet":"?xt=urn:btih:21782aa9d7beab8bf711ad06024aaf0ef867db3a&amp;dn=Alvin+and+The+Chipmunks+The+Road+Chip+%282015%29+720p+BD+H264+AC3+%5BI&amp;tr=udp%3A%2F%2Ftracker.leechers-paradise.org%3A6969&amp;tr=udp%3A%2F%2Fzer0day.ch%3A1337&amp;tr=udp%3A%2F%2Fopen.demonii.com%3A1337&amp;tr=udp%3A%2F%2Ftracker.coppersurfer.tk%3A6969&amp;tr=udp%3A%2F%2Fexodus.desync.com%3A6969","seeders":4,"leechers":5,"uploader":"ITRG","files":5,"time":1458579663,"description":"\nSCREENSHOTS\r\n\r\n[img]http://extraimg.org/images/2016/03/21/Alvin_and_The_Chipmunks_The_Road_Chip_2015_720p_BD_Screen1.jpg[/img]\r\n\r\n[img]http://extraimg.org/images/2016/03/21/Alvin_and_The_Chipmunks_The_Road_Chip_2015_720p_BD_Screen2.jpg] [/img]\r\n\r\n[img]http://extraimg.org/images/2016/03/21/Alvin_and_The_Chipmunks_The_Road_Chip_2015_720p_BD_Screen3.jpg[/img]\r\n\r\n \r\nGeneral\r\nUnique ID                   : 80205693681296258805500020573630496654 (0x3C570E01F0DF23FE5D91CE504A55FF8E)\r\nComplete name               : Alvin and The Chipmunks The Road Chip (2015) 720p BD H264 AC3 [ITRG][IndexTorrent].mkv\r\nFormat                      : Matroska\r\nFormat version              : Version 2\r\nFile size                   : 721 MiB\r\nDuration                    : 1h 32mn\r\nOverall bit rate            : 1 095 Kbps\r\nEncoded date                : UTC 2016-03-17T11:30:26Z\r\n\r\nVideo\r\nID                          : 1\r\nFormat                      : AVC\r\nFormat/Info                 : Advanced Video Codec\r\nFormat profile              :   \r\nFormat settings, CABAC      : Yes\r\nFormat settings, ReFrames   : 4 frames\r\nCodec ID                    : V_MPEG4/ISO/AVC\r\nDuration                    : 1h 32mn\r\nBit rate                    : 1 000 Kbps\r\nWidth                       : 720 pixels\r\nHeight                      : 304 pixels\r\nDisplay aspect ratio        : 2.35:1\r\nFrame rate mode             : Constant\r\nFrame rate                  : 23.976 (24000/1001) fps\r\nColor space                 : YUV\r\nChroma subsampling          : 4:2:0\r\nBit depth                   : 8 bits\r\nScan type                   : Progressive\r\nBits/(Pixel*Frame)          : 0.191\r\nStream size                 : 643 MiB (89%)\r\nWriting library             : x264 core 142 r2479 dd79a61\r\nEncoding settings           : cabac=1 / ref=1 / deblock=1:0:0 / analyse=0x1:0x111 / me=hex / subme=2 / psy=1 / psy_rd=1.00:0.00 / mixed_ref=0 / me_range=16 / chroma_me=1 / trellis=0 / 8x8dct=0 / cqm=0 / deadzone=21,11 / fast_pskip=1 / chroma_qp_offset=0 / threads=1 / lookahead_threads=1 / sliced_threads=0 / nr=0 / decimate=1 / interlaced=0 / bluray_compat=0 / constrained_intra=0 / bframes=3 / b_pyramid=2 / b_adapt=1 / b_bias=0 / direct=1 / weightb=1 / open_gop=0 / weightp=1 / keyint=240 / keyint_min=24 / scenecut=40 / intra_refresh=0 / rc_lookahead=10 / rc=abr / mbtree=1 / bitrate=1000 / ratetol=1.0 / qcomp=0.60 / qpmin=0 / qpmax=69 / qpstep=4 / vbv_maxrate=20000 / vbv_bufsize=25000 / nal_hrd=none / filler=0 / ip_ratio=1.40 / aq=1:1.00\r\nDefault                     : Yes\r\nForced                      : No\r\nColor range                 : Limited\r\nColor primaries             : BT.709\r\nTransfer characteristics    : BT.709\r\nMatrix coefficients         : BT.709\r\n\r\nAudio\r\nID                          : 2\r\nFormat                      : AC-3\r\nFormat/Info                 : Audio Coding 3\r\nMode extension              : CM (complete main)\r\nFormat settings, Endianness : Big\r\nCodec ID                    : A_AC3\r\nDuration                    : 1h 32mn\r\nBit rate mode               : Constant\r\nBit rate                    : 96.0 Kbps\r\nChannel(s)                  : 2 channels\r\nChannel positions           : Front: L R\r\nSampling rate               : 48.0 KHz\r\nFrame rate                  : 31.250 fps (1536 spf)\r\nCompression mode            : Lossy\r\nDelay relative to video     : -5ms\r\nStream size                 : 63.2 MiB (9%)\r\nTitle                       : Stereo\r\nLanguage                    : English\r\nDefault                     : Yes\r\nForced                      : No","torrent":{"xt":"urn:btih:21782aa9d7beab8bf711ad06024aaf0ef867db3a","amp;dn":"Alvin+and+The+Chipmunks+The+Road+Chip+%282015%29+720p+BD+H264+AC3+%5BI","amp;tr":["udp%3A%2F%2Ftracker.leechers-paradise.org%3A6969","udp%3A%2F%2Fzer0day.ch%3A1337","udp%3A%2F%2Fopen.demonii.com%3A1337","udp%3A%2F%2Ftracker.coppersurfer.tk%3A6969","udp%3A%2F%2Fexodus.desync.com%3A6969"],"infoHash":"21782aa9d7beab8bf711ad06024aaf0ef867db3a","infoHashBuffer":{"type":"Buffer","data":[33,120,42,169,215,190,171,139,247,17,173,6,2,74,175,14,248,103,219,58]},"announce":[],"urlList":[]}}